<svg xmlns="http://www.w3.org/2000/svg" xmlns:xlink="http://www.w3.org/1999/xlink" width="24" height="24" viewBox="0 0 24 24">
  <defs>
    <polygon id="icon_outline_24-a" points="0 932.5 162 932.5 162 0 0 0"/>
  </defs>
  <g fill="none" fill-rule="evenodd" transform="translate(-444 -204)">
    <g transform="translate(354 156)">
      <path fill="#000" fill-rule="nonzero" d="M102.75,68 L93.25,68 C91.4547864,68 90,66.5452136 90,64.75 L90,55.25 C90,53.4547864 91.4547864,52 93.25,52 L102.75,52 C104.545214,52 106,53.4547864 106,55.25 L106,64.75 C106,66.5452136 104.545214,68 102.75,68 Z M102.75,66.5 C103.716786,66.5 104.5,65.7167864 104.5,64.75 L104.5,55.25 C104.5,54.2832136 103.716786,53.5 102.75,53.5 L93.25,53.5 C92.2832136,53.5 91.5,54.2832136 91.5,55.25 L91.5,64.75 C91.5,65.7167864 92.2832136,66.5 93.25,66.5 L102.75,66.5 Z"/>
      <mask id="icon_outline_24-b" fill="#fff">
        <use xlink:href="#icon_outline_24-a"/>
      </mask>
      <path fill="#000" fill-rule="nonzero" d="M93.75 62L102.25 62C102.664214 62 103 61.6642136 103 61.25L103 55.75C103 55.3357864 102.664214 55 102.25 55L93.75 55C93.3357864 55 93 55.3357864 93 55.75L93 61.25C93 61.6642136 93.3357864 62 93.75 62zM94.5 60.5L94.5 56.5 101.5 56.5 101.5 60.5 94.5 60.5zM93.75 65L98.25 65C98.6642136 65 99 64.6642136 99 64.25 99 63.8357864 98.6642136 63.5 98.25 63.5L93.75 63.5C93.3357864 63.5 93 63.8357864 93 64.25 93 64.6642136 93.3357864 65 93.75 65zM100.75 65L102.25 65C102.664214 65 103 64.6642136 103 64.25 103 63.8357864 102.664214 63.5 102.25 63.5L100.75 63.5C100.335786 63.5 100 63.8357864 100 64.25 100 64.6642136 100.335786 65 100.75 65zM108.75 55.5L113.25 55.5C113.664214 55.5 114 55.1642136 114 54.75 114 54.3357864 113.664214 54 113.25 54L108.75 54C108.335786 54 108 54.3357864 108 54.75 108 55.1642136 108.335786 55.5 108.75 55.5zM108.75 66.5L113.25 66.5C113.664214 66.5 114 66.1642136 114 65.75 114 65.3357864 113.664214 65 113.25 65L108.75 65C108.335786 65 108 65.3357864 108 65.75 108 66.1642136 108.335786 66.5 108.75 66.5zM108.75 61L113.25 61C113.664214 61 114 60.6642136 114 60.25 114 59.8357864 113.664214 59.5 113.25 59.5L108.75 59.5C108.335786 59.5 108 59.8357864 108 60.25 108 60.6642136 108.335786 61 108.75 61z" mask="url(#icon_outline_24-b)"/>
    </g>
    <polygon points="92 72 116 72 116 48 92 48" transform="translate(352 156)"/>
  </g>
</svg>
