<svg xmlns="http://www.w3.org/2000/svg" width="24" height="24" viewBox="0 0 24 24">
  <g fill="none" fill-rule="evenodd" transform="translate(-444 -204)">
    <g fill="#000" transform="translate(351.5 203.5)">
      <path fill-rule="nonzero" d="M116.5,12.5 C116.5,19.1277136 111.127714,24.5 104.5,24.5 C97.8722864,24.5 92.5,19.1277136 92.5,12.5 C92.5,5.87228644 97.8722864,0.5 104.5,0.5 C111.127714,0.5 116.5,5.87228644 116.5,12.5 Z M115,12.5 C115,6.70071356 110.299286,2 104.5,2 C98.7007136,2 94,6.70071356 94,12.5 C94,18.2992864 98.7007136,23 104.5,23 C110.299286,23 115,18.2992864 115,12.5 Z"/>
      <path d="M111.2295 17L111.4915 17C112.3235 17 113 16.324 113 15.4935 113 13.8435 111.675 12.5 110.0455 12.5 109.7675 12.4885 110 12.787 110 12.787 110.629 13.669 111 14.7445 111 15.906L111 16.365C111 16.496 110.9915 16.625 110.976 16.7515 110.976 16.7515 110.9175 17 111.2295 17M97.7705 17L97.5085 17C96.6765 17 96 16.324 96 15.4935 96 13.8435 97.325 12.5 98.9545 12.5 99.2325 12.4885 99 12.787 99 12.787 98.371 13.669 98 14.7445 98 15.906L98 16.365C98 16.496 98.0085 16.625 98.024 16.7515 98.024 16.7515 98.0825 17 97.7705 17M99.25 11.5C100.215 11.5 101 10.6025 101 9.5 101 8.285 100.313 7.5 99.25 7.5 98.187 7.5 97.5 8.285 97.5 9.5 97.5 10.6025 98.285 11.5 99.25 11.5M109.75 11.5C110.715 11.5 111.5 10.6025 111.5 9.5 111.5 8.285 110.813 7.5 109.75 7.5 108.687 7.5 108 8.285 108 9.5 108 10.6025 108.785 11.5 109.75 11.5M105.5659 12L103.4339 12C101.2644 12 99.4999 13.749 99.4999 15.899L99.4999 16.358C99.4999 17.263 100.2429 18 101.1569 18L107.8434 18C108.7569 18 109.4999 17.263 109.4999 16.358L109.4999 15.899C109.4999 13.749 107.7354 12 105.5659 12M107 7.75C107 6.0535 106.042 5 104.5 5 102.958 5 102 6.0535 102 7.75 102 9.266 103.1215 10.5 104.5 10.5 105.8785 10.5 107 9.266 107 7.75"/>
    </g>
    <polygon points="444 228 468 228 468 204 444 204"/>
  </g>
</svg>
