<svg xmlns="http://www.w3.org/2000/svg" width="24" height="24" viewBox="0 0 24 24">
  <g fill="none" fill-rule="evenodd" transform="translate(-444 -204)">
    <g fill="#000" transform="translate(352.5 205)">
      <path d="M103.5,0 C100.5125,0 100.138,0.0125 98.965,0.0665 C97.794,0.1195 96.994,0.3055 96.2945,0.5775 C95.5715,0.8585 94.958,1.235 94.346,1.846 C93.735,2.458 93.3585,3.0715 93.0775,3.7945 C92.8055,4.494 92.6195,5.294 92.5665,6.465 C92.5125,7.638 92.5,8.0125 92.5,11 C92.5,13.9875 92.5125,14.362 92.5665,15.535 C92.6195,16.706 92.8055,17.506 93.0775,18.2055 C93.3585,18.9285 93.735,19.542 94.346,20.154 C94.958,20.765 95.5715,21.1415 96.2945,21.4225 C96.994,21.6945 97.794,21.8805 98.965,21.9335 C100.138,21.9875 100.5125,22 103.5,22 C106.4875,22 106.862,21.9875 108.035,21.9335 C109.206,21.8805 110.006,21.6945 110.7055,21.4225 C111.4285,21.1415 112.042,20.765 112.654,20.154 C113.265,19.542 113.6415,18.9285 113.9225,18.2055 C114.1945,17.506 114.3805,16.706 114.4335,15.535 C114.4875,14.362 114.5,13.9875 114.5,11 C114.5,8.0125 114.4875,7.638 114.4335,6.465 C114.3805,5.294 114.1945,4.494 113.9225,3.7945 C113.6415,3.0715 113.265,2.458 112.654,1.846 C112.042,1.235 111.4285,0.8585 110.7055,0.5775 C110.006,0.3055 109.206,0.1195 108.035,0.0665 C106.862,0.0125 106.4875,0 103.5,0 M103.5,2 C106.431,2 106.7785,2.011 107.936,2.064 C109.0065,2.113 109.588,2.2915 109.9745,2.442 C110.487,2.641 110.8525,2.879 111.237,3.263 C111.621,3.6475 111.859,4.013 112.058,4.5255 C112.2085,4.912 112.387,5.4935 112.436,6.564 C112.489,7.7215 112.5,8.069 112.5,11 C112.5,13.931 112.489,14.2785 112.436,15.436 C112.387,16.5065 112.2085,17.088 112.058,17.4745 C111.859,17.987 111.621,18.3525 111.237,18.737 C110.8525,19.121 110.487,19.359 109.9745,19.558 C109.588,19.7085 109.0065,19.887 107.936,19.936 C106.779,19.989 106.4315,20 103.5,20 C100.5685,20 100.221,19.989 99.064,19.936 C97.9935,19.887 97.412,19.7085 97.0255,19.558 C96.513,19.359 96.1475,19.121 95.763,18.737 C95.379,18.3525 95.141,17.987 94.942,17.4745 C94.7915,17.088 94.613,16.5065 94.564,15.436 C94.511,14.2785 94.5,13.931 94.5,11 C94.5,8.069 94.511,7.7215 94.564,6.564 C94.613,5.4935 94.7915,4.912 94.942,4.5255 C95.141,4.013 95.379,3.6475 95.763,3.263 C96.1475,2.879 96.513,2.641 97.0255,2.442 C97.412,2.2915 97.9935,2.113 99.064,2.064 C100.2215,2.011 100.569,2 103.5,2"/>
      <path d="M103.5 14.5C101.567 14.5 100 12.933 100 11 100 9.067 101.567 7.5 103.5 7.5 105.433 7.5 107 9.067 107 11 107 12.933 105.433 14.5 103.5 14.5M103.5 5.5C100.4625 5.5 98 7.9625 98 11 98 14.0375 100.4625 16.5 103.5 16.5 106.5375 16.5 109 14.0375 109 11 109 7.9625 106.5375 5.5 103.5 5.5M110.5 5.25C110.5 5.9405 109.9405 6.5 109.25 6.5 108.5595 6.5 108 5.9405 108 5.25 108 4.5595 108.5595 4 109.25 4 109.9405 4 110.5 4.5595 110.5 5.25"/>
    </g>
    <polygon points="444 228 468 228 468 204 444 204"/>
  </g>
</svg>
