<svg xmlns="http://www.w3.org/2000/svg" xmlns:xlink="http://www.w3.org/1999/xlink" width="24" height="24" viewBox="0 0 24 24">
  <defs>
    <polygon id="business-briefcase_outline_24-a" points="0 947.5 224 947.5 224 0 0 0"/>
  </defs>
  <g fill="none" fill-rule="evenodd" transform="translate(-444 -204)">
    <g transform="translate(352 144)">
      <mask id="business-briefcase_outline_24-b" fill="#fff">
        <use xlink:href="#business-briefcase_outline_24-a"/>
      </mask>
      <path fill="#000" fill-rule="nonzero" d="M113.2324,81.5 L94.7674,81.5 C93.515552,81.5 92.4999,80.4845791 92.4999,79.2325 L92.4999,68.2675 C92.4999,67.0154209 93.515552,66 94.7674,66 L113.2324,66 C114.484614,66 115.4999,67.0152864 115.4999,68.2675 L115.4999,79.2325 C115.4999,80.4847136 114.484614,81.5 113.2324,81.5 Z M113.2324,80 C113.656186,80 113.9999,79.6562864 113.9999,79.2325 L113.9999,68.2675 C113.9999,67.8437136 113.656186,67.5 113.2324,67.5 L94.7674,67.5 C94.3439027,67.5 93.9999,67.8439244 93.9999,68.2675 L93.9999,79.2325 C93.9999,79.6560756 94.3439027,80 94.7674,80 L113.2324,80 Z" mask="url(#business-briefcase_outline_24-b)"/>
      <path fill="#000" fill-rule="nonzero" d="M100 66.75L100 65.25C100 64.5641809 100.579379 64 101.304 64L106.696 64C107.420621 64 108 64.5641809 108 65.25L108 66.75C108 67.1642136 108.335786 67.5 108.75 67.5 109.164214 67.5 109.5 67.1642136 109.5 66.75L109.5 65.25C109.5 63.726699 108.240256 62.5 106.696 62.5L101.304 62.5C99.7597443 62.5 98.5 63.726699 98.5 65.25L98.5 66.75C98.5 67.1642136 98.8357864 67.5 99.25 67.5 99.6642136 67.5 100 67.1642136 100 66.75zM105.951997 72.0491368L106.219 72 106.080977 72 105.951997 72.0491368zM101.857967 72L93.5187079 68.7997886C93.1319918 68.6513853 92.6981918 68.844576 92.5497886 69.2312921 92.4013853 69.6180082 92.594576 70.0518082 92.9812921 70.2002114L101.450292 73.4502114C101.536056 73.4831237 101.627137 73.5 101.719 73.5L106.219 73.5C106.310249 73.5 106.400732 73.4833483 106.486003 73.4508632L115.017003 70.2008632C115.404079 70.0534013 115.598325 69.6200727 115.450863 69.2329967 115.303401 68.8459206 114.870073 68.6516749 114.482997 68.7991368L106.080977 72 101.857967 72zM101.857967 72L101.719 72 101.987708 72.0497886 101.857967 72z" mask="url(#business-briefcase_outline_24-b)"/>
      <path fill="#000" fill-rule="nonzero" d="M102.25,77 L105.75,77 C106.164214,77 106.5,76.6642136 106.5,76.25 L106.5,72.75 C106.5,72.3357864 106.164214,72 105.75,72 L102.25,72 C101.835786,72 101.5,72.3357864 101.5,72.75 L101.5,76.25 C101.5,76.6642136 101.835786,77 102.25,77 Z M103,75.5 L103,73.5 L105,73.5 L105,75.5 L103,75.5 Z" mask="url(#business-briefcase_outline_24-b)"/>
    </g>
    <polygon points="444 228 468 228 468 204 444 204"/>
  </g>
</svg>
