<svg xmlns="http://www.w3.org/2000/svg" width="24" height="24" viewBox="0 0 24 24">
  <g fill="none" fill-rule="evenodd" transform="translate(-444 -156)">
    <path fill="#000" d="M109.20705,9.20705 L102.45705,15.95705 C102.26155,16.15255 102.00605,16.25005 101.75005,16.25005 C101.49405,16.25005 101.23805,16.15255 101.04305,15.95705 L97.79305,12.70705 C97.40255,12.31655 97.40255,11.68355 97.79305,11.29305 C98.18355,10.90255 98.81655,10.90255 99.20705,11.29305 L101.75005,13.83605 L107.79305,7.79305 C108.18355,7.40255 108.81655,7.40255 109.20705,7.79305 C109.59755,8.18355 109.59755,8.81655 109.20705,9.20705 M103.50005,5e-05 C97.15855,5e-05 92.00005,5.15855 92.00005,11.50005 C92.00005,17.84155 97.15855,23.00005 103.50005,23.00005 C109.84155,23.00005 115.00005,17.84155 115.00005,11.50005 C115.00005,5.15855 109.84155,5e-05 103.50005,5e-05" transform="translate(352.5 156.5)"/>
    <polygon points="444 180 468 180 468 156 444 156"/>
  </g>
</svg>
