<svg xmlns="http://www.w3.org/2000/svg" width="24" height="24" viewBox="0 0 24 24">
  <g fill="none" fill-rule="evenodd" transform="translate(-444 -156)">
    <g fill="#000" transform="translate(354 156)">
      <path fill-rule="nonzero" d="M113.5,12 C113.5,18.3512136 108.351214,23.5 102,23.5 C95.6487864,23.5 90.5,18.3512136 90.5,12 C90.5,5.64878644 95.6487864,0.5 102,0.5 C108.351214,0.5 113.5,5.64878644 113.5,12 Z M112,12 C112,6.47721356 107.522786,2 102,2 C96.4772136,2 92,6.47721356 92,12 C92,17.5227864 96.4772136,22 102,22 C107.522786,22 112,17.5227864 112,12 Z"/>
      <path d="M102,1.25 C107.937,1.25 112.75,6.063 112.75,12 C112.75,17.937 107.937,22.75 102,22.75"/>
    </g>
    <polygon points="444 180 468 180 468 156 444 156"/>
  </g>
</svg>
