<svg xmlns="http://www.w3.org/2000/svg" width="24" height="24" viewBox="0 0 24 24">
  <g fill="none" fill-rule="evenodd" transform="translate(-444 -204)">
    <path fill="#000" fill-rule="nonzero" d="M113.5,11.5 C113.5,17.8512136 108.351214,23 102,23 C95.6487864,23 90.5,17.8512136 90.5,11.5 C90.5,5.14878644 95.6487864,0 102,0 C108.351214,0 113.5,5.14878644 113.5,11.5 Z M112,11.5 C112,5.97721356 107.522786,1.5 102,1.5 C96.4772136,1.5 92,5.97721356 92,11.5 C92,17.0227864 96.4772136,21.5 102,21.5 C107.522786,21.5 112,17.0227864 112,11.5 Z" transform="translate(354 204.5)"/>
    <polygon points="444 228 468 228 468 204 444 204"/>
  </g>
</svg>
