<svg xmlns="http://www.w3.org/2000/svg" width="24" height="24" viewBox="0 0 24 24">
  <g fill="none" fill-rule="evenodd" transform="translate(-444 -204)">
    <g fill="#000" transform="translate(352.5 204.5)">
      <path d="M103.5,0 C97.149,0 92,5.149 92,11.5 C92,17.851 97.149,23 103.5,23 C109.851,23 115,17.851 115,11.5 C115,5.149 109.851,0 103.5,0 M103.5,1.5 C109.014,1.5 113.5,5.986 113.5,11.5 C113.5,17.014 109.014,21.5 103.5,21.5 C97.986,21.5 93.5,17.014 93.5,11.5 C93.5,5.986 97.986,1.5 103.5,1.5"/>
      <path d="M101.3335,8.1665 L104.6845,10.3155 C105.4815,10.8265 105.7135,11.887 105.202,12.6845 C104.691,13.4815 103.6305,13.7135 102.8335,13.202 C102.621,13.066 102.4445,12.8835 102.3155,12.6845 L100.1665,9.3335 C99.915,8.941 100.029,8.4185 100.422,8.1665 C100.708,7.983 101.0645,7.9945 101.3335,8.1665"/>
      <polygon fill-rule="nonzero" points="94.25 17.5 112.75 17.5 112.75 16 94.25 16"/>
      <path d="M104.5 4C104.5 4.552 104.052 5 103.5 5 102.948 5 102.5 4.552 102.5 4 102.5 3.448 102.948 3 103.5 3 104.052 3 104.5 3.448 104.5 4M111 12.5C110.448 12.5 110 12.052 110 11.5 110 10.948 110.448 10.5 111 10.5 111.552 10.5 112 10.948 112 11.5 112 12.052 111.552 12.5 111 12.5M96 12.5C95.448 12.5 95 12.052 95 11.5 95 10.948 95.448 10.5 96 10.5 96.552 10.5 97 10.948 97 11.5 97 12.052 96.552 12.5 96 12.5M109.51025 6.9038C109.12025 7.2943 108.48675 7.2943 108.09625 6.9038 107.70575 6.5133 107.70575 5.8798 108.09625 5.4898 108.48675 5.0993 109.12025 5.0993 109.51025 5.4898 109.90075 5.8798 109.90075 6.5133 109.51025 6.9038M97.48975 6.9038C97.09925 6.5133 97.09925 5.8798 97.48975 5.4898 97.87975 5.0993 98.51325 5.0993 98.90375 5.4898 99.29425 5.8798 99.29425 6.5133 98.90375 6.9038 98.51325 7.2943 97.87975 7.2943 97.48975 6.9038"/>
    </g>
    <polygon points="444 228 468 228 468 204 444 204"/>
  </g>
</svg>
