<svg width="16" height="16" viewBox="0 0 16 16" fill="none" xmlns="http://www.w3.org/2000/svg">
<path d="M3.44498 14.1035C3.66593 14.2712 3.97069 14.3093 4.22212 14.1873C6.53831 13.1131 9.51736 13.1131 11.8412 14.1873C11.9402 14.2331 12.0545 14.2559 12.1612 14.2559C12.3212 14.2559 12.4888 14.2026 12.6183 14.1035C14.5459 12.6483 15.6507 10.4312 15.6507 8.03116C15.6507 5.23497 14.1345 2.78925 11.8793 1.46354C11.864 1.45592 11.8564 1.44068 11.8412 1.43306C11.8259 1.43306 11.8183 1.43306 11.8031 1.41782C10.6907 0.777823 9.40307 0.412109 8.03165 0.412109C6.66022 0.412109 5.3726 0.785443 4.26022 1.41782C4.24498 1.41782 4.23736 1.41782 4.22212 1.43306C4.20688 1.44068 4.19926 1.45592 4.18402 1.46354C1.92879 2.78925 0.412598 5.23497 0.412598 8.03116C0.412598 10.4312 1.51736 12.6483 3.44498 14.1035ZM2.69831 7.26925H1.98974C2.19545 5.6083 3.07926 4.15306 4.35164 3.18544L4.70212 3.79497C4.84688 4.03877 5.09831 4.17592 5.36498 4.17592C5.4945 4.17592 5.62403 4.14544 5.74593 4.07687C6.11165 3.86354 6.23355 3.39878 6.02784 3.03306L5.66974 2.41592C6.39355 2.11116 7.19355 1.93592 8.03165 1.93592C8.86974 1.93592 9.66974 2.10354 10.3935 2.41592L10.0355 3.03306C9.82212 3.39878 9.95165 3.86354 10.3174 4.07687C10.4393 4.14544 10.5688 4.17592 10.6983 4.17592C10.965 4.17592 11.2164 4.03877 11.3612 3.79497L11.7116 3.18544C12.984 4.15306 13.8678 5.6083 14.0736 7.26925H13.365C12.9459 7.26925 12.6031 7.61211 12.6031 8.03116C12.6031 8.4502 12.9459 8.79306 13.365 8.79306H14.0736C13.8907 10.2712 13.1745 11.6197 12.0393 12.6102C10.7897 12.0997 9.41831 11.8407 8.03165 11.8407C6.64498 11.8407 5.27355 12.1073 4.02402 12.6102C2.88879 11.6197 2.1726 10.2712 1.98974 8.79306H2.69831C3.11736 8.79306 3.46022 8.4502 3.46022 8.03116C3.46022 7.61211 3.11736 7.26925 2.69831 7.26925Z" fill="black" style="fill:black;fill-opacity:1;"/>
<path d="M8.03164 9.55489C8.86973 9.55489 9.55545 8.86918 9.55545 8.03108C9.55545 7.36061 8.58021 4.93775 8.38211 4.45775C8.26783 4.16823 7.79545 4.16823 7.67354 4.45775C7.47545 4.93775 6.50021 7.36061 6.50021 8.03108C6.50021 8.86918 7.18592 9.55489 8.02402 9.55489H8.03164Z" fill="black" style="fill:black;fill-opacity:1;"/>
</svg>
