<svg xmlns="http://www.w3.org/2000/svg" width="24" height="24" viewBox="0 0 24 24">
  <g fill="none" fill-rule="evenodd" transform="translate(-444 -204)">
    <g fill="#000" fill-rule="nonzero" transform="translate(354.5 159)">
      <path d="M90.75,66.5 L112.25,66.5 C112.664214,66.5 113,66.1642136 113,65.75 L113,48.25 C113,47.8357864 112.664214,47.5 112.25,47.5 L90.75,47.5 C90.3357864,47.5 90,47.8357864 90,48.25 L90,65.75 C90,66.1642136 90.3357864,66.5 90.75,66.5 Z M91.5,65 L91.5,49 L111.5,49 L111.5,65 L91.5,65 Z"/>
      <path d="M97 52.25L97 65.75C97 66.1642136 97.3357864 66.5 97.75 66.5 98.1642136 66.5 98.5 66.1642136 98.5 65.75L98.5 52.25C98.5 51.8357864 98.1642136 51.5 97.75 51.5 97.3357864 51.5 97 51.8357864 97 52.25zM104.5 52.25L104.5 65.75C104.5 66.1642136 104.835786 66.5 105.25 66.5 105.664214 66.5 106 66.1642136 106 65.75L106 52.25C106 51.8357864 105.664214 51.5 105.25 51.5 104.835786 51.5 104.5 51.8357864 104.5 52.25z"/>
      <path d="M90.75 62L112.25 62C112.664214 62 113 61.6642136 113 61.25 113 60.8357864 112.664214 60.5 112.25 60.5L90.75 60.5C90.3357864 60.5 90 60.8357864 90 61.25 90 61.6642136 90.3357864 62 90.75 62zM90.75 57.5L112.25 57.5C112.664214 57.5 113 57.1642136 113 56.75 113 56.3357864 112.664214 56 112.25 56L90.75 56C90.3357864 56 90 56.3357864 90 56.75 90 57.1642136 90.3357864 57.5 90.75 57.5zM90.75 53L112.25 53C112.664214 53 113 52.6642136 113 52.25 113 51.8357864 112.664214 51.5 112.25 51.5L90.75 51.5C90.3357864 51.5 90 51.8357864 90 52.25 90 52.6642136 90.3357864 53 90.75 53z"/>
    </g>
    <polygon points="444 228 468 228 468 204 444 204"/>
  </g>
</svg>
