<svg xmlns="http://www.w3.org/2000/svg" width="24" height="24" viewBox="0 0 24 24">
  <g fill="none" fill-rule="evenodd" transform="translate(-444 -204)">
    <g fill="#000" fill-rule="nonzero" transform="translate(354.5 193.5)">
      <path d="M91.75 17.5L111.75 17.5C112.164214 17.5 112.5 17.1642136 112.5 16.75 112.5 16.3357864 112.164214 16 111.75 16L91.75 16C91.3357864 16 91 16.3357864 91 16.75 91 17.1642136 91.3357864 17.5 91.75 17.5zM93.75 15.5L95.25 15.5C95.6642136 15.5 96 15.1642136 96 14.75 96 14.3357864 95.6642136 14 95.25 14L93.75 14C93.3357864 14 93 14.3357864 93 14.75 93 15.1642136 93.3357864 15.5 93.75 15.5zM109.5 25.27345C109.5 25.9506636 108.950714 26.49995 108.2735 26.49995L100.2265 26.49995C99.5492864 26.49995 99 25.9506636 99 25.27345L99 20.22645C99 19.5492364 99.5492864 18.99995 100.2265 18.99995L108.2735 18.99995C108.950714 18.99995 109.5 19.5492364 109.5 20.22645L109.5 25.27345zM108 20.49995L100.5 20.49995 100.5 24.99995 108 24.99995 108 20.49995zM108 29.5L108 32.75C108 33.1642136 108.335786 33.5 108.75 33.5 109.164214 33.5 109.5 33.1642136 109.5 32.75L109.5 29.2265C109.5 28.5492864 108.950714 28 108.2735 28L100.2265 28C99.5492864 28 99 28.5492864 99 29.2265L99 32.75C99 33.1642136 99.3357864 33.5 99.75 33.5 100.164214 33.5 100.5 33.1642136 100.5 32.75L100.5 29.5 108 29.5z"/>
      <path d="M96,16.75 L96,32.75 C96,33.1642136 96.3357864,33.5 96.75,33.5 C97.1642136,33.5 97.5,33.1642136 97.5,32.75 L97.5,16.75 C97.5,16.3357864 97.1642136,16 96.75,16 C96.3357864,16 96,16.3357864 96,16.75 Z"/>
      <path d="M110.7964,33.5 L92.2034,33.5 C91.2626864,33.5 90.4999,32.7372136 90.4999,31.7965 L90.4999,13.2035 C90.4999,12.2627864 91.2626864,11.5 92.2034,11.5 L110.7964,11.5 C111.737502,11.5 112.4999,12.2626745 112.4999,13.2035 L112.4999,31.7965 C112.4999,32.7373255 111.737502,33.5 110.7964,33.5 Z M110.7964,32 C110.908953,32 110.9999,31.90902 110.9999,31.7965 L110.9999,13.2035 C110.9999,13.09098 110.908953,13 110.7964,13 L92.2034,13 C92.0911136,13 91.9999,13.0912136 91.9999,13.2035 L91.9999,31.7965 C91.9999,31.9087864 92.0911136,32 92.2034,32 L110.7964,32 Z"/>
    </g>
    <polygon points="444 228 468 228 468 204 444 204"/>
  </g>
</svg>
