<svg xmlns="http://www.w3.org/2000/svg" width="24" height="24" viewBox="0 0 24 24">
  <g fill="none" fill-rule="evenodd" transform="translate(-444 -204)">
    <g transform="translate(353.5 159)">
      <path fill="#000" fill-rule="nonzero" d="M92.25,53 L93.75,53 C94.1642136,53 94.5,52.6642136 94.5,52.25 C94.5,51.8357864 94.1642136,51.5 93.75,51.5 L92.25,51.5 C91.8357864,51.5 91.5,51.8357864 91.5,52.25 C91.5,52.6642136 91.8357864,53 92.25,53 Z"/>
      <path fill="#000" fill-rule="nonzero" d="M102 4.25C102 6.32071356 100.320714 8 98.25 8 96.1792864 8 94.5 6.32071356 94.5 4.25 94.5 2.17928644 96.1792864.5 98.25.5 100.320714.5 102 2.17928644 102 4.25zM100.5 4.25C100.5 3.00771356 99.4922864 2 98.25 2 97.0077136 2 96 3.00771356 96 4.25 96 5.49228644 97.0077136 6.5 98.25 6.5 99.4922864 6.5 100.5 5.49228644 100.5 4.25zM99.25 13L91.25 13C90.8357864 13 90.5 13.3357864 90.5 13.75 90.5 14.1642136 90.8357864 14.5 91.25 14.5L99.25 14.5C99.6642136 14.5 100 14.1642136 100 13.75 100 13.3357864 99.6642136 13 99.25 13zM101 13.75C101 15.8207136 102.679286 17.5 104.75 17.5 106.820714 17.5 108.5 15.8207136 108.5 13.75 108.5 11.6792864 106.820714 10 104.75 10 102.679286 10 101 11.6792864 101 13.75zM102.5 13.75C102.5 12.5077136 103.507714 11.5 104.75 11.5 105.992286 11.5 107 12.5077136 107 13.75 107 14.9922864 105.992286 16 104.75 16 103.507714 16 102.5 14.9922864 102.5 13.75zM103.75 5L111.75 5C112.164214 5 112.5 4.66421356 112.5 4.25 112.5 3.83578644 112.164214 3.5 111.75 3.5L103.75 3.5C103.335786 3.5 103 3.83578644 103 4.25 103 4.66421356 103.335786 5 103.75 5zM110.25 14.5L111.75 14.5C112.164214 14.5 112.5 14.1642136 112.5 13.75 112.5 13.3357864 112.164214 13 111.75 13L110.25 13C109.835786 13 109.5 13.3357864 109.5 13.75 109.5 14.1642136 109.835786 14.5 110.25 14.5z" transform="translate(1 48)"/>
    </g>
    <polygon points="444 228 468 228 468 204 444 204"/>
  </g>
</svg>
