<svg xmlns="http://www.w3.org/2000/svg" width="24" height="24" viewBox="0 0 24 24">
  <g fill="none" fill-rule="evenodd" transform="translate(-444 -204)">
    <g fill="#000" fill-rule="nonzero" transform="translate(354 206)">
      <path d="M90,16.25 C90,18.3207136 91.6792864,20 93.75,20 L110.25,20 C112.320714,20 114,18.3207136 114,16.25 L114,7.25 C114,5.17928644 112.320714,3.5 110.25,3.5 L90.75,3.5 C90.3357864,3.5 90,3.83578644 90,4.25 L90,16.25 Z M91.5,5 L110.25,5 C111.492286,5 112.5,6.00771356 112.5,7.25 L112.5,16.25 C112.5,17.4922864 111.492286,18.5 110.25,18.5 L93.75,18.5 C92.5077136,18.5 91.5,17.4922864 91.5,16.25 L91.5,5 Z"/>
      <path d="M103.092307,3.78992132 L101.274307,1.44942132 C100.5643,0.535037064 99.4711391,0 98.313,0 L93.75,0 C91.6792864,0 90,1.67928644 90,3.75 L90,4.25 C90,4.66421356 90.3357864,5.00003481 90.75,5.00003481 C91.1642136,5.00003481 91.5,4.66421356 91.5,4.25 L91.5,3.75 C91.5,2.50771356 92.5077136,1.5 93.75,1.5 L98.313,1.5 C99.0078929,1.5 99.6637197,1.82098817 100.089615,2.36947876 L101.907693,4.71007868 C102.161787,5.03720082 102.632957,5.09640146 102.960079,4.84230702 C103.287201,4.58821258 103.346401,4.11704345 103.092307,3.78992132 Z"/>
    </g>
    <polygon points="444 228 468 228 468 204 444 204"/>
  </g>
</svg>
