<svg xmlns="http://www.w3.org/2000/svg" width="24" height="24" viewBox="0 0 24 24">
  <g fill="none" fill-rule="evenodd" transform="translate(-444 -204)">
    <g fill="#000" fill-rule="nonzero" transform="translate(351.5 207.5)">
      <path d="M97.25 8.5C95.7103384 8.5 94.5 7.13834315 94.5 5.5 94.5 3.73524318 95.4751122 2.5 97.25 2.5 99.0248878 2.5 100 3.73524318 100 5.5 100 7.13834315 98.7896616 8.5 97.25 8.5zM97.25 7C97.9193 7 98.5 6.34670002 98.5 5.5 98.5 4.49621608 98.1082825 4 97.25 4 96.3917175 4 96 4.49621608 96 5.5 96 6.34670002 96.5807 7 97.25 7zM111.75 8.5C110.210338 8.5 109 7.13834315 109 5.5 109 3.73524318 109.975112 2.5 111.75 2.5 113.524888 2.5 114.5 3.73524318 114.5 5.5 114.5 7.13834315 113.289662 8.5 111.75 8.5zM111.75 7C112.4193 7 113 6.34670002 113 5.5 113 4.49621608 112.608283 4 111.75 4 110.891717 4 110.5 4.49621608 110.5 5.5 110.5 6.34670002 111.0807 7 111.75 7zM108 3.75C108 5.80686145 106.447973 7.5 104.5 7.5 102.552027 7.5 101 5.80686145 101 3.75 101 1.5201508 102.237365 0 104.5 0 106.762635 0 108 1.5201508 108 3.75zM106.5 3.75C106.5 2.28836666 105.858289 1.5 104.5 1.5 103.141711 1.5 102.5 2.28836666 102.5 3.75 102.5 5.00616994 103.411001 6 104.5 6 105.588999 6 106.5 5.00616994 106.5 3.75zM108.895 17L100.105 17C98.9457864 17 98 16.0542136 98 14.895L98 14.165C98 11.3227864 100.322786 9 103.165 9L105.835 9C108.677214 9 111 11.3227864 111 14.165L111 14.895C111 16.0542136 110.054214 17 108.895 17zM108.895 15.5C109.225786 15.5 109.5 15.2257864 109.5 14.895L109.5 14.165C109.5 12.1512136 107.848786 10.5 105.835 10.5L103.165 10.5C101.151214 10.5 99.5 12.1512136 99.5 14.165L99.5 14.895C99.5 15.2257864 99.7742136 15.5 100.105 15.5L108.895 15.5z"/>
      <path d="M100.570794 10.4345214C99.8576332 9.83546624 98.9591521 9.4998 98.0139 9.4998L96.4864 9.4998C94.3332477 9.4998 92.5676637 11.2249423 92.5018045 13.3625294L92.4999 13.5368C92.4999 14.6185142 93.381687 15.4998 94.4634 15.4998L98.7499 15.4998 98.7499 13.9998 94.4634 13.9998C94.2099232 13.9998 93.9999 13.7898961 93.9999 13.5368L93.9999 13.4863C93.9999 12.1203232 95.1203039 10.9998 96.4864 10.9998L98.0139 10.9998C98.6017705 10.9998 99.159822 11.2082841 99.6060059 11.5830786L100.570794 10.4345214zM109.393994 11.5830786C109.840178 11.2082841 110.398229 10.9998 110.9861 10.9998L112.5136 10.9998C113.879696 10.9998 115.0001 12.1203232 115.0001 13.4863L115.0001 13.5368C115.0001 13.7898961 114.790077 13.9998 114.5366 13.9998L110.2501 13.9998 110.2501 15.4998 114.5366 15.4998C115.618313 15.4998 116.5001 14.6185142 116.5001 13.5368L116.5001 13.4863C116.5001 11.2919319 114.708159 9.4998 112.5136 9.4998L110.9861 9.4998C110.040848 9.4998 109.142367 9.83546624 108.429206 10.4345214L109.393994 11.5830786z"/>
    </g>
    <polygon points="444 228 468 228 468 204 444 204"/>
  </g>
</svg>
