<svg xmlns="http://www.w3.org/2000/svg" width="24" height="24" viewBox="0 0 24 24">
  <g fill="none" fill-rule="evenodd" transform="translate(-444 -204)">
    <g fill="#000" transform="translate(354 204.5)">
      <path fill-rule="nonzero" d="M100.880961,0.0530934519 C95.3984627,0.572510555 90.992368,5.04526256 90.5397307,10.5411894 C90.3627774,12.6916139 90.7838844,14.7885495 91.7333031,16.6674923 C91.8112481,16.821768 91.8252043,17.0086154 91.769856,17.1914946 L90.5563259,21.2030939 C90.2682472,22.2636508 91.2091299,23.2283339 92.253107,22.9535462 L96.3219774,21.7378394 C96.5051425,21.683121 96.6930394,21.697006 96.8443717,21.7733559 C98.7231478,22.7196534 100.818946,23.1381852 102.967305,22.9596742 C108.45828,22.5043695 112.926337,18.1015211 113.446837,12.6236951 C114.127512,5.46443146 108.232486,-0.511202254 101.09757,0.0345514062 L100.880961,0.0530934519 Z M95.8925214,20.3006311 L92.0488526,21.4494557 L93.2055711,17.6259159 C93.3706997,17.0803066 93.3270251,16.4955846 93.0721137,15.991041 C92.2462657,14.3566504 91.8806494,12.5360354 92.0346736,10.6642578 C92.4228723,5.95074438 96.1701071,2.09349343 100.846638,1.56467231 L101.022413,1.54640896 C107.316773,0.950292247 112.552003,6.18748056 111.953567,12.481763 C111.501845,17.2357573 107.611377,21.0694458 102.843224,21.4648151 C100.973046,21.6202115 99.1533702,21.2568216 97.5195794,20.4339178 C97.0191135,20.1814236 96.4358394,20.1383215 95.8925214,20.3006311 Z"/>
      <path fill-rule="nonzero" d="M96.6701768,14.7252884 C97.8455258,16.1600086 99.8097481,17 102.00035,17 C104.190952,17 106.155174,16.1600086 107.330523,14.7252884 C107.593018,14.4048676 107.546059,13.9323214 107.225638,13.6698268 C106.905218,13.4073323 106.432671,13.4542908 106.170177,13.7747116 C105.294035,14.844197 103.760516,15.5 102.00035,15.5 C100.240184,15.5 98.7066652,14.844197 97.8305232,13.7747116 C97.5680286,13.4542908 97.0954824,13.4073323 96.7750616,13.6698268 C96.4546408,13.9323214 96.4076823,14.4048676 96.6701768,14.7252884 Z"/>
      <path d="M106.75045 8C106.06095 8 105.50045 8.5605 105.50045 9.25 105.50045 9.9395 106.06095 10.5 106.75045 10.5 107.43995 10.5 108.00045 9.9395 108.00045 9.25 108.00045 8.5605 107.43995 8 106.75045 8M98.50045 9.25C98.50045 8.5605 97.93995 8 97.25045 8 96.56095 8 96.00045 8.5605 96.00045 9.25 96.00045 9.9395 96.56095 10.5 97.25045 10.5 97.93995 10.5 98.50045 9.9395 98.50045 9.25"/>
    </g>
    <polygon points="444 228 468 228 468 204 444 204"/>
  </g>
</svg>
