<svg xmlns="http://www.w3.org/2000/svg" fill="none" viewBox="0 0 24 24" width="24px" height="24px"><path fill="#000" d="M4 16c.06 0 .11-.02.17-.04C4.57 17.14 5.68 18 7 18h7c1.65 0 3-1.35 3-3V5c0-1.65-1.35-3-3-3H7c-1.31 0-2.42.86-2.83 2.04C4.11 4.03 4.06 4 4 4H3c-.55 0-1 .45-1 1s.45 1 1 1h1v3H3c-.55 0-1 .45-1 1s.45 1 1 1h1v3H3c-.55 0-1 .45-1 1s.45 1 1 1zM6 5c0-.55.45-1 1-1h7c.55 0 1 .45 1 1v10c0 .55-.45 1-1 1H7c-.55 0-1-.45-1-1z"/><path fill="#000" d="M8 8h5c.55 0 1-.45 1-1s-.45-1-1-1H8c-.55 0-1 .45-1 1s.45 1 1 1m0 3h5c.55 0 1-.45 1-1s-.45-1-1-1H8c-.55 0-1 .45-1 1s.45 1 1 1m0 3h4c.55 0 1-.45 1-1s-.45-1-1-1H8c-.55 0-1 .45-1 1s.45 1 1 1m11-5v7c0 2.21-1.79 4-4 4H9c-.55 0-1 .45-1 1s.45 1 1 1h6c3.31 0 6-2.69 6-6V9c0-.55-.45-1-1-1s-1 .45-1 1"/></svg>