<svg xmlns="http://www.w3.org/2000/svg" width="24" height="24" viewBox="0 0 24 24">
  <g fill="none" fill-rule="evenodd" transform="translate(-444 -204)">
    <g fill="#000" transform="translate(352 205)">
      <path d="M96.3839,20.4707 L96.1889,20.4877 C95.8679,20.5162 95.5554,20.4167 95.3069,20.2077 C95.0579,19.9987 94.9049,19.7072 94.8769,19.3867 L93.5034,3.6892 C93.4759,3.3697 93.5754,3.0562 93.7844,2.8072 C93.9934,2.5582 94.2849,2.4052 94.6049,2.3772 L97.4509,2.1282 C97.5404,1.5702 97.7374,1.0437 98.0314,0.5722 L94.4749,0.8832 C93.7549,0.9457 93.1024,1.2867 92.6354,1.8427 C92.1689,2.3987 91.9464,3.1012 92.0094,3.8202 L93.3829,19.5172 C93.4454,20.2367 93.7864,20.8897 94.3424,21.3562 C94.8364,21.7712 95.4459,21.9927 96.0804,21.9927 C96.1599,21.9927 96.2399,21.9892 96.3199,21.9817 L97.4319,21.8847 C97.2774,21.7472 97.1289,21.6017 96.9939,21.4402 C96.7434,21.1422 96.5414,20.8147 96.3839,20.4707"/>
      <path fill-rule="nonzero" d="M111.609899,22.4629779 L100.005727,21.4479191 C98.4894232,21.3146328 97.3605421,19.9690763 97.4937532,18.4529426 L98.8812809,2.59112664 C99.0145737,1.07474865 100.359697,-0.0545514412 101.875756,0.0786529998 L113.479237,1.09365141 C114.995331,1.22623231 116.124137,2.57195334 115.991545,4.08817872 L114.603549,19.9501374 C114.47098,21.466094 113.125973,22.5948702 111.609899,22.4629779 Z M111.740256,20.968653 L111.822456,20.9730861 C112.479584,20.9869961 113.051257,20.482646 113.109255,19.8194213 L114.497251,3.95746258 C114.557683,3.26641668 114.039239,2.64834759 113.348544,2.587947 L101.744756,1.57292173 C101.054073,1.51223675 100.436312,2.0308792 100.375547,2.72215739 L98.9880217,18.5839438 C98.9273102,19.2749289 99.4457817,19.8929148 100.136756,19.953653 L111.740256,20.968653 Z"/>
      <path fill-rule="nonzero" d="M105.756578,15.184404 C106.022836,15.5017038 106.495904,15.5430809 106.813204,15.2768222 C107.130504,15.0105635 107.171881,14.5374959 106.905622,14.220196 L103.689622,10.387696 C103.431527,10.0801242 102.976984,10.030373 102.658467,10.2748326 L98.5424669,13.4338326 C98.2138755,13.6860241 98.1519411,14.1568417 98.4041326,14.4854331 C98.6563241,14.8140245 99.1271417,14.8759589 99.4557331,14.6237674 L103.002129,11.901934 L105.756578,15.184404 Z"/>
      <path fill-rule="nonzero" d="M113.787857,12.6905792 C114.054102,13.0078905 114.527168,13.049288 114.844479,12.783043 C115.161791,12.516798 115.203188,12.0437321 114.936943,11.7264208 L111.399443,7.51042081 C111.133184,7.19309316 110.660087,7.15171031 110.342779,7.41799207 L104.593779,12.2424825 C104.276487,12.5087601 104.235124,12.981829 104.501392,13.299121 C104.76766,13.6164129 105.240729,13.657776 105.558021,13.3915079 L110.732471,9.04916398 L113.787857,12.6905792 Z"/>
      <path d="M105.4923,5.59765 C105.5768,6.56015 104.8643,7.40915 103.9013,7.49315 C102.9393,7.57765 102.0898,6.86515 102.0058,5.90215 C101.9213,4.94015 102.6338,4.09065 103.5968,4.00665 C104.5593,3.92215 105.4083,4.63465 105.4923,5.59765"/>
    </g>
    <polygon points="444 228 468 228 468 204 444 204"/>
  </g>
</svg>
