<svg xmlns="http://www.w3.org/2000/svg" width="24" height="24" viewBox="0 0 24 24">
  <g fill="none" fill-rule="evenodd" transform="translate(-444 -204)">
    <g fill="#000" transform="translate(352 206.5)">
      <path fill-rule="nonzero" d="M112.25,19 L95.75,19 C93.6857864,19 92,17.3142136 92,15.25 L92,3.75 C92,1.68578644 93.6857864,0 95.75,0 L112.25,0 C114.314214,0 116,1.68578644 116,3.75 L116,15.25 C116,17.3142136 114.314214,19 112.25,19 Z M112.25,17.5 C113.485786,17.5 114.5,16.4857864 114.5,15.25 L114.5,3.75 C114.5,2.51421356 113.485786,1.5 112.25,1.5 L95.75,1.5 C94.5142136,1.5 93.5,2.51421356 93.5,3.75 L93.5,15.25 C93.5,16.4857864 94.5142136,17.5 95.75,17.5 L112.25,17.5 Z"/>
      <polygon points="101.25 5.75 101.25 13.25 107.5 9.5"/>
      <path fill-rule="nonzero" d="M100.5,5.75 L100.5,13.25 C100.5,13.8329709 101.135978,14.1930557 101.635872,13.8931197 L107.885872,10.1431197 C108.371376,9.85181715 108.371376,9.14818285 107.885872,8.85688031 L101.635872,5.10688031 C101.135978,4.80694427 100.5,5.16702914 100.5,5.75 Z M106.042262,9.5 L102,11.9253572 L102,7.07464278 L106.042262,9.5 Z"/>
    </g>
    <polygon points="444 228 468 228 468 204 444 204"/>
  </g>
</svg>
