<svg xmlns="http://www.w3.org/2000/svg" fill="none" viewBox="0 0 24 24" width="24px" height="24px"><path fill="#000" d="M21 10.244a12 12 0 0 1-6.234 10.525l-1.805.988-.113.058a2 2 0 0 1-1.809-.058l-1.805-.988a12 12 0 0 1-1.132-.707l1.439-1.44q.318.208.654.393l1.805.988 1.805-.988A10 10 0 0 0 19 10.245v-1.08l2-2z"/><path fill="#000" fill-rule="evenodd" d="M3.744 5.112a17.18 17.18 0 0 1 14.62-.89l.929-.929a1 1 0 0 1 1.414 1.414l-16 16a1 1 0 1 1-1.414-1.414l2-2A12 12 0 0 1 3 10.243V6.368c0-.522.286-1.004.744-1.256m13.058.671A15.18 15.18 0 0 0 5 6.711v3.533a10 10 0 0 0 1.726 5.616z" clip-rule="evenodd"/></svg>