<svg xmlns="http://www.w3.org/2000/svg" width="24" height="24" viewBox="0 0 24 24">
  <g fill="none" fill-rule="evenodd" transform="translate(-444 -204)">
    <g fill="#000" transform="translate(355 157)">
      <path d="M98.0298,55.5 C98.0298,53.8455 99.3753,52.5 101.0298,52.5 C102.6843,52.5 104.0298,53.8455 104.0298,55.5 L104.0298,56 L98.0298,56 L98.0298,55.5 Z M98.5298,51.75 C98.5298,50.5095 99.5393,49.5 100.7798,49.5 L101.2798,49.5 C102.5203,49.5 103.5298,50.5095 103.5298,51.75 L103.5298,51.7605 C102.8143,51.281 101.9543,51 101.0298,51 C100.1053,51 99.2453,51.281 98.5298,51.7605 L98.5298,51.75 Z M108.3753,65.2565 L108.1233,67.7755 C108.1103,67.9035 108.0033,68 107.8743,68 L94.1848,68 C94.0558,68 93.9488,67.9035 93.9358,67.775 L92.9038,57.4565 C93.0123,57.4795 93.1223,57.5 93.2368,57.5 L107.5848,57.5 L108.8228,57.5 C108.9373,57.5 109.0473,57.4795 109.1558,57.4565 L109.1513,57.5 L109.6633,57.5 C110.0123,57.5 110.3458,57.603 110.6288,57.7945 L110.7413,56.672 C110.7803,56.28 110.6853,55.882 110.4723,55.551 L108.7063,52.804 C108.3828,52.301 107.8323,52 107.2338,52 L106.7798,52 C106.3658,52 106.0298,52.336 106.0298,52.75 C106.0298,53.164 106.3658,53.5 106.7798,53.5 L107.2338,53.5 C107.3193,53.5 107.3978,53.543 107.4443,53.615 L108.8393,55.785 C108.8533,55.8195 108.8678,55.8535 108.8873,55.886 C108.8938,55.8975 108.9098,55.924 108.8878,55.962 C108.8663,56 108.8368,56 108.8228,56 L105.5298,56 L105.5298,55.5 C105.5298,54.7455 105.3413,54.035 105.0118,53.41 C105.0228,53.3585 105.0298,53.305 105.0298,53.25 L105.0298,51.75 C105.0298,49.682 103.3478,48 101.2798,48 L100.7798,48 C98.7118,48 97.0298,49.682 97.0298,51.75 L97.0298,53.25 C97.0298,53.305 97.0368,53.3585 97.0478,53.41 C96.7183,54.035 96.5298,54.7455 96.5298,55.5 L96.5298,56 L93.2368,56 C93.2228,56 93.1933,56 93.1718,55.962 C93.1503,55.924 93.1658,55.897 93.1728,55.8855 L93.1603,55.8785 L94.6153,53.6145 C94.6618,53.543 94.7403,53.5 94.8258,53.5 L95.2798,53.5 C95.6938,53.5 96.0298,53.164 96.0298,52.75 C96.0298,52.336 95.6938,52 95.2798,52 L94.8258,52 C94.2273,52 93.6768,52.301 93.3533,52.8035 L91.5873,55.5515 C91.3743,55.882 91.2793,56.28 91.3183,56.672 L92.4433,67.9245 C92.5333,68.823 93.2818,69.5 94.1848,69.5 L107.8743,69.5 C108.7778,69.5 109.5268,68.8225 109.6158,67.9245 L109.8098,65.987 C109.3283,65.9535 108.8783,65.7595 108.5343,65.415 L108.3753,65.2565 Z"/>
      <path d="M108.25,61 C107.836,61 107.5,60.664 107.5,60.25 C107.5,59.836 107.836,59.5 108.25,59.5 C108.664,59.5 109,59.836 109,60.25 C109,60.664 108.664,61 108.25,61 L108.25,61 Z M110.181,58.715 C110.043,58.576 109.859,58.5 109.663,58.5 L107.585,58.5 C107.389,58.5 107.205,58.576 107.0665,58.715 L106.715,59.0665 C106.576,59.205 106.5,59.389 106.5,59.585 L106.5,61.663 C106.5,61.859 106.576,62.043 106.715,62.181 L109.241,64.7075 C109.4295,64.896 109.68,65 109.947,65 C110.2135,65 110.464,64.896 110.6525,64.7075 L112.7075,62.6525 C112.896,62.464 113,62.2135 113,61.947 C113,61.68 112.896,61.4295 112.7075,61.241 L110.181,58.715 Z"/>
    </g>
    <polygon points="444 228 468 228 468 204 444 204"/>
  </g>
</svg>
