<svg xmlns="http://www.w3.org/2000/svg" width="24" height="24" viewBox="0 0 24 24">
  <g fill="none" fill-rule="evenodd" transform="translate(-444 -204)">
    <g fill="#000" transform="translate(352 207)">
      <path fill-rule="nonzero" d="M114.25 15L93.75 15C92.7837864 15 92 14.2162136 92 13.25L92 1.75C92 .783786438 92.7837864 0 93.75 0L114.25 0C115.216214 0 116 .783786438 116 1.75L116 13.25C116 14.2162136 115.216214 15 114.25 15zM114.25 13.5C114.387786 13.5 114.5 13.3877864 114.5 13.25L114.5 1.75C114.5 1.61221356 114.387786 1.5 114.25 1.5L93.75 1.5C93.6122136 1.5 93.5 1.61221356 93.5 1.75L93.5 13.25C93.5 13.3877864 93.6122136 13.5 93.75 13.5L114.25 13.5zM95.75 18L112.25 18C112.664214 18 113 17.6642136 113 17.25 113 16.8357864 112.664214 16.5 112.25 16.5L95.75 16.5C95.3357864 16.5 95 16.8357864 95 17.25 95 17.6642136 95.3357864 18 95.75 18z"/>
      <path fill-rule="nonzero" d="M103,14.5 L103,17 C103,17.5522847 103.447715,18 104,18 C104.552285,18 105,17.5522847 105,17 L105,14.5 C105,13.9477153 104.552285,13.5 104,13.5 C103.447715,13.5 103,13.9477153 103,14.5 Z"/>
      <path d="M112 10C111.4485 10 111 10.4485 111 11 111 11.5515 111.4485 12 112 12 112.5515 12 113 11.5515 113 11 113 10.4485 112.5515 10 112 10M108.5 12C109.0515 12 109.5 11.5515 109.5 11 109.5 10.4485 109.0515 10 108.5 10 107.9485 10 107.5 10.4485 107.5 11 107.5 11.5515 107.9485 12 108.5 12"/>
    </g>
    <polygon points="444 228 468 228 468 204 444 204"/>
  </g>
</svg>
