<svg width="24" height="24" viewBox="0 0 24 24" fill="none" xmlns="http://www.w3.org/2000/svg">
<path d="M9 16C9.55228 16 10 16.4477 10 17C10 17.5523 9.55228 18 9 18C8.44772 18 8 17.5523 8 17C8 16.4477 8.44772 16 9 16Z" fill="black" style="fill:black;fill-opacity:1;"/>
<path d="M14 16C14.5523 16 15 16.4477 15 17C15 17.5523 14.5523 18 14 18H12C11.4477 18 11 17.5523 11 17C11 16.4477 11.4477 16 12 16H14Z" fill="black" style="fill:black;fill-opacity:1;"/>
<path d="M9 12C9.55228 12 10 12.4477 10 13C10 13.5523 9.55228 14 9 14C8.44772 14 8 13.5523 8 13C8 12.4477 8.44772 12 9 12Z" fill="black" style="fill:black;fill-opacity:1;"/>
<path d="M15 12C15.5523 12 16 12.4477 16 13C16 13.5523 15.5523 14 15 14H12C11.4477 14 11 13.5523 11 13C11 12.4477 11.4477 12 12 12H15Z" fill="black" style="fill:black;fill-opacity:1;"/>
<path d="M12.793 5.29297C13.1835 4.90251 13.8165 4.90251 14.207 5.29297C14.5975 5.68348 14.5975 6.3165 14.207 6.70703L13.4141 7.5L14.207 8.29297C14.5976 8.68349 14.5976 9.31651 14.207 9.70703C13.8165 10.0976 13.1835 10.0976 12.793 9.70703L12 8.91406L11.207 9.70703C10.8165 10.0976 10.1835 10.0976 9.79297 9.70703C9.40249 9.3165 9.40246 8.68348 9.79297 8.29297L10.5859 7.5L9.79297 6.70703C9.40244 6.31651 9.40244 5.68349 9.79297 5.29297C10.1835 4.90244 10.8165 4.90244 11.207 5.29297L12 6.08594L12.793 5.29297Z" fill="black" style="fill:black;fill-opacity:1;"/>
<path fill-rule="evenodd" clip-rule="evenodd" d="M17 2C18.6569 2 20 3.34315 20 5V19C20 20.6569 18.6569 22 17 22H7C5.34315 22 4 20.6569 4 19V5C4 3.34315 5.34315 2 7 2H17ZM7 4C6.48232 4 6.05621 4.39333 6.00488 4.89746L6 5V19C6 19.5523 6.44772 20 7 20H17C17.5523 20 18 19.5523 18 19V5C18 4.44772 17.5523 4 17 4H7Z" fill="black" style="fill:black;fill-opacity:1;"/>
</svg>
