<svg width="24" height="24" viewBox="0 0 24 24" fill="none" xmlns="http://www.w3.org/2000/svg">
<g clip-path="url(#clip0_1820_47436)">
<path d="M6.29289 9.29289C6.68342 8.90237 7.31658 8.90237 7.70711 9.29289L9 10.5858L10.2929 9.29289C10.6834 8.90237 11.3166 8.90237 11.7071 9.29289C12.0976 9.68342 12.0976 10.3166 11.7071 10.7071L10.4142 12L11.7071 13.2929C12.0976 13.6834 12.0976 14.3166 11.7071 14.7071C11.3166 15.0976 10.6834 15.0976 10.2929 14.7071L9 13.4142L7.70711 14.7071C7.31658 15.0976 6.68342 15.0976 6.29289 14.7071C5.90237 14.3166 5.90237 13.6834 6.29289 13.2929L7.58579 12L6.29289 10.7071C5.90237 10.3166 5.90237 9.68342 6.29289 9.29289Z" fill="black"/>
<path fill-rule="evenodd" clip-rule="evenodd" d="M15.5299 6.95722C15.6145 7.37488 15.6979 7.85687 15.7705 8.40075L20.4424 7.14937C20.7874 7.05694 21.1479 7.16653 21.2992 7.49012C21.5939 8.12011 22 9.45086 22 12C22 14.5491 21.5939 15.8799 21.2992 16.5099C21.1479 16.8335 20.7874 16.9431 20.4424 16.8506L15.7705 15.5992C15.6979 16.1431 15.6145 16.6251 15.5299 17.0428C15.2864 18.2451 14.1937 19 12.967 19H5.03304C3.80632 19 2.71365 18.2451 2.47011 17.0428C2.23046 15.8597 2 14.1603 2 12C2 9.83971 2.23046 8.14035 2.47011 6.95722C2.71365 5.75492 3.80439 5 5.0311 5H12.9689C14.1956 5 15.2864 5.75492 15.5299 6.95722ZM4.57455 16.866C4.66838 16.9357 4.82532 17 5.03304 17H12.967C13.1747 17 13.3316 16.9357 13.4254 16.866C13.5091 16.804 13.5516 16.7349 13.5697 16.6457C13.7848 15.5836 14 14.0174 14 12C14 9.98256 13.7848 8.41636 13.5697 7.35427C13.5514 7.26395 13.5085 7.19494 13.4256 7.13336C13.3325 7.06424 13.1765 7 12.9689 7H5.0311C4.82355 7 4.66746 7.06424 4.5744 7.13336C4.49149 7.19494 4.4486 7.26395 4.4303 7.35427C4.21517 8.41636 4 9.98256 4 12C4 14.0174 4.21517 15.5836 4.4303 16.6457C4.44838 16.7349 4.49092 16.804 4.57455 16.866ZM16 13.5902V10.4098L19.7943 9.39347C19.9056 9.97921 20 10.823 20 12C20 13.177 19.9056 14.0208 19.7943 14.6065L16 13.5902Z" fill="black"/>
</g>
<defs>
<clipPath id="clip0_1820_47436">
<rect width="24" height="24" fill="white"/>
</clipPath>
</defs>
</svg>
